<?xml version="1.0" standalone="no"?>
<!DOCTYPE svg PUBLIC "-//W3C//DTD SVG 20010904//EN"
 "http://www.w3.org/TR/2001/REC-SVG-20010904/DTD/svg10.dtd">
<svg version="1.0" xmlns="http://www.w3.org/2000/svg"
 width="1024.000000pt" height="1024.000000pt" viewBox="0 0 1024.000000 1024.000000"
 preserveAspectRatio="xMidYMid meet">
<metadata>
Created by potrace 1.11, written by Peter Selinger 2001-2013
</metadata>
<g transform="translate(0.000000,1024.000000) scale(0.100000,-0.100000)"
fill="#000000" stroke="none">
<path d="M0 5120 l0 -5120 5120 0 5120 0 0 5120 0 5120 -5120 0 -5120 0 0
-5120z m3360 4560 l0 -80 80 0 80 0 0 -560 0 -560 160 0 160 0 0 -80 0 -80
640 0 640 0 0 80 0 80 80 0 80 0 0 80 0 80 80 0 80 0 0 480 0 480 80 0 80 0 0
80 0 80 80 0 80 0 0 -80 0 -80 80 0 80 0 0 -480 0 -480 80 0 80 0 0 -1200 0
-1200 80 0 80 0 0 320 0 320 80 0 80 0 0 -80 0 -80 80 0 80 0 0 -240 0 -240
-80 0 -80 0 0 -160 0 -160 -80 0 -80 0 0 -80 0 -80 -80 0 -80 0 0 -80 0 -80
-160 0 -160 0 0 -80 0 -80 -1280 0 -1280 0 0 80 0 80 -160 0 -160 0 0 80 0 80
-80 0 -80 0 0 80 0 80 -80 0 -80 0 0 80 0 80 -80 0 -80 0 0 240 0 240 80 0 80
0 0 80 0 80 80 0 80 0 0 -240 0 -240 80 0 80 0 0 1200 0 1200 80 0 80 0 0 480
0 480 80 0 80 0 0 80 0 80 80 0 80 0 0 -80z m3200 -4000 l0 -80 -80 0 -80 0 0
-80 0 -80 80 0 80 0 0 -160 0 -160 -80 0 -80 0 0 -80 0 -80 80 0 80 0 0 -160
0 -160 -80 0 -80 0 0 -80 0 -80 160 0 160 0 0 -80 0 -80 -80 0 -80 0 0 -80 0
-80 160 0 160 0 0 -80 0 -80 -80 0 -80 0 0 -80 0 -80 160 0 160 0 0 -80 0 -80
-80 0 -80 0 0 -80 0 -80 -80 0 -80 0 0 -80 0 -80 -80 0 -80 0 0 -80 0 -80 -80
0 -80 0 0 -80 0 -80 -80 0 -80 0 0 -80 0 -80 -160 0 -160 0 0 80 0 80 -160 0
-160 0 0 80 0 80 80 0 80 0 0 80 0 80 -80 0 -80 0 0 160 0 160 80 0 80 0 0 80
0 80 -80 0 -80 0 0 160 0 160 80 0 80 0 0 80 0 80 -80 0 -80 0 0 160 0 160 80
0 80 0 0 80 0 80 -80 0 -80 0 0 160 0 160 160 0 160 0 0 80 0 80 80 0 80 0 0
80 0 80 80 0 80 0 0 80 0 80 80 0 80 0 0 80 0 80 80 0 80 0 0 -80z m3200
-5120 l0 -80 -3920 0 -3920 0 0 80 0 80 3920 0 3920 0 0 -80z"/>
<path d="M3520 7680 l0 -320 240 0 240 0 0 320 0 320 -240 0 -240 0 0 -320z"/>
<path d="M4960 7680 l0 -320 240 0 240 0 0 320 0 320 -240 0 -240 0 0 -320z"/>
<path d="M4000 6800 l0 -80 160 0 160 0 0 -80 0 -80 -160 0 -160 0 0 -80 0
-80 -160 0 -160 0 0 80 0 80 -80 0 -80 0 0 -80 0 -80 80 0 80 0 0 -80 0 -80
160 0 160 0 0 80 0 80 160 0 160 0 0 80 0 80 160 0 160 0 0 -80 0 -80 160 0
160 0 0 -80 0 -80 160 0 160 0 0 80 0 80 80 0 80 0 0 80 0 80 -80 0 -80 0 0
-80 0 -80 -160 0 -160 0 0 80 0 80 -160 0 -160 0 0 80 0 80 160 0 160 0 0 80
0 80 -480 0 -480 0 0 -80z"/>
<path d="M6240 5360 l0 -80 -80 0 -80 0 0 -80 0 -80 -80 0 -80 0 0 -80 0 -80
-80 0 -80 0 0 -80 0 -80 80 0 80 0 0 80 0 80 80 0 80 0 0 80 0 80 80 0 80 0 0
80 0 80 80 0 80 0 0 80 0 80 -80 0 -80 0 0 -80z"/>
<path d="M6240 4880 l0 -80 -80 0 -80 0 0 -80 0 -80 -80 0 -80 0 0 -80 0 -80
-80 0 -80 0 0 -80 0 -80 80 0 80 0 0 80 0 80 80 0 80 0 0 80 0 80 80 0 80 0 0
80 0 80 80 0 80 0 0 80 0 80 -80 0 -80 0 0 -80z"/>
<path d="M6240 4400 l0 -80 -80 0 -80 0 0 -80 0 -80 -80 0 -80 0 0 -80 0 -80
-80 0 -80 0 0 -80 0 -80 80 0 80 0 0 80 0 80 80 0 80 0 0 80 0 80 80 0 80 0 0
80 0 80 80 0 80 0 0 80 0 80 -80 0 -80 0 0 -80z"/>
<path d="M6400 4080 l0 -80 -80 0 -80 0 0 -80 0 -80 80 0 80 0 0 80 0 80 80 0
80 0 0 80 0 80 -80 0 -80 0 0 -80z"/>
<path d="M6560 3760 l0 -80 -80 0 -80 0 0 -80 0 -80 -80 0 -80 0 0 -80 0 -80
-80 0 -80 0 0 -80 0 -80 -80 0 -80 0 0 -80 0 -80 80 0 80 0 0 80 0 80 80 0 80
0 0 80 0 80 80 0 80 0 0 80 0 80 80 0 80 0 0 80 0 80 80 0 80 0 0 80 0 80 -80
0 -80 0 0 -80z"/>
<path d="M5920 3600 l0 -80 -80 0 -80 0 0 -80 0 -80 80 0 80 0 0 80 0 80 80 0
80 0 0 80 0 80 -80 0 -80 0 0 -80z"/>
</g>
</svg>
